# xmcd
#
# Track frame offsets: 
#        182
#        16817
#        27050
#        44605
#        58422
#        71610
#        80915
#        93827
#        111385
#        126575
#        139135
#        152652
#
# Disc length: 2161 seconds
#
# Revision: 1
# Processed by: cddbd v1.5.2PL0 Copyright (c) Steve Scherf et al.
# Submitted via: ExactAudioCopyFreeDBPlugin 1.0
#
DISCID=ab086f0c
DTITLE=Johnny Madsen - Madsens Septiktanker
DYEAR=1900
DGENRE=Country
TTITLE0=Morgen Blues
TTITLE1=Maden på risten
TTITLE2=Sergei og Johnny
TTITLE3='59
TTITLE4=Jens Oluf
TTITLE5=Madsens septitanker
TTITLE6=Perlen
TTITLE7=Terylene bukser
TTITLE8=Eigils hemmelige liv
TTITLE9=D-Mark blues
TTITLE10=Det hvide gennemsnit
TTITLE11=Ta' mod vest
EXTD=
EXTT0=
EXTT1=
EXTT2=
EXTT3=
EXTT4=
EXTT5=
EXTT6=
EXTT7=
EXTT8=
EXTT9=
EXTT10=
EXTT11=
PLAYORDER=
